<?xml version="1.0" standalone="no"?>
<!DOCTYPE svg PUBLIC "-//W3C//DTD SVG 20010904//EN"
 "http://www.w3.org/TR/2001/REC-SVG-20010904/DTD/svg10.dtd">
<svg version="1.0" xmlns="http://www.w3.org/2000/svg"
 width="512.000000pt" height="512.000000pt" viewBox="0 0 512.000000 512.000000"
 preserveAspectRatio="xMidYMid meet">
<metadata>
Created by potrace 1.14, written by Peter Selinger 2001-2017
</metadata>
<g transform="translate(0.000000,512.000000) scale(0.100000,-0.100000)"
fill="#000000" stroke="none">
<path d="M1727 3943 c-4 -3 -23 -7 -43 -9 -20 -2 -46 -10 -58 -17 -11 -8 -25
-16 -31 -18 -18 -7 -102 -94 -98 -101 2 -5 -1 -8 -6 -8 -6 0 -11 -7 -11 -15 0
-8 -3 -15 -8 -15 -4 0 -16 -17 -27 -37 -11 -21 -24 -41 -30 -45 -5 -4 -6 -8
-1 -8 5 0 2 -7 -5 -17 -8 -9 -13 -18 -12 -19 1 -2 -6 -23 -16 -47 -28 -65 -71
-230 -84 -324 -4 -31 -25 -52 -48 -48 -10 2 -19 -1 -19 -7 0 -6 -3 -9 -6 -6
-3 4 -41 -7 -85 -22 -43 -16 -79 -27 -79 -24 0 3 -7 -2 -16 -10 -8 -9 -20 -14
-25 -11 -5 4 -9 1 -9 -4 0 -6 -4 -11 -10 -11 -14 0 -116 -49 -185 -89 -89 -52
-235 -157 -228 -165 3 -3 1 -6 -5 -6 -6 0 -36 -24 -68 -52 -31 -29 -60 -54
-65 -56 -5 -2 -9 -9 -9 -16 0 -6 -9 -18 -21 -26 -11 -8 -39 -40 -62 -70 -22
-30 -47 -61 -54 -68 -7 -7 -13 -17 -13 -21 0 -4 -8 -16 -18 -27 -18 -21 -37
-51 -60 -96 -7 -16 -18 -28 -23 -28 -6 0 -8 -4 -4 -9 3 -5 -4 -24 -14 -43 -30
-49 -80 -176 -73 -182 3 -3 1 -6 -4 -6 -9 0 -14 -19 -18 -67 0 -11 -4 -19 -8
-17 -5 4 -10 -16 -24 -101 -10 -56 -14 -95 -17 -143 -3 -52 -2 -55 32 -80 20
-15 37 -30 39 -34 2 -5 8 -8 13 -8 5 0 45 -24 89 -52 78 -53 91 -69 113 -153
2 -5 6 -19 9 -30 18 -56 24 -174 14 -255 -1 -14 -4 -33 -4 -42 -1 -10 -9 -16
-20 -13 -51 9 -119 -54 -117 -110 1 -39 27 -125 38 -125 4 0 11 -9 15 -20 13
-34 103 -133 164 -181 31 -24 57 -47 58 -51 0 -5 7 -8 15 -8 8 0 15 -4 15 -10
0 -5 6 -10 14 -10 8 0 22 -7 30 -16 9 -8 16 -12 16 -8 0 4 7 -1 15 -12 8 -10
15 -14 15 -9 0 6 3 6 8 -1 18 -26 274 -139 427 -188 44 -14 95 -31 113 -37 58
-19 234 -60 317 -73 11 -2 20 -4 20 -5 0 -1 20 -4 45 -7 24 -2 60 -7 80 -9 51
-8 140 -17 175 -19 17 0 35 -5 42 -9 6 -4 14 -3 18 3 4 6 11 7 17 4 19 -12
324 -3 367 11 13 4 27 0 37 -9 8 -9 22 -16 30 -16 8 0 14 -5 14 -12 0 -6 3 -9
6 -5 3 3 35 -10 70 -28 36 -19 65 -34 67 -34 1 0 16 -5 32 -11 17 -7 35 -13
40 -14 6 -2 24 -9 40 -15 17 -7 37 -14 45 -16 8 -2 15 -4 15 -5 0 -1 9 -3 20
-5 11 -2 38 -9 60 -15 22 -7 51 -13 65 -15 14 -2 25 -4 25 -5 0 -7 122 -21
221 -25 80 -4 107 -1 135 13 30 15 34 21 32 55 -1 39 -23 97 -35 97 -5 0 -8 6
-8 13 0 8 -9 22 -20 32 -11 10 -17 21 -15 25 3 5 2 10 -3 12 -4 1 -38 43 -75
93 -53 71 -64 91 -52 98 8 4 16 7 17 7 2 -1 38 17 82 39 43 23 85 41 92 41 8
0 14 4 14 8 0 4 27 21 60 36 33 16 60 33 60 39 0 6 3 8 6 4 4 -3 26 7 50 24
24 16 44 26 44 22 0 -4 4 -3 8 2 4 6 48 37 97 70 50 32 100 68 113 79 12 11
22 16 22 13 0 -4 8 1 18 11 11 9 30 26 43 36 13 10 31 25 40 33 14 12 24 2 87
-80 38 -51 108 -132 154 -180 46 -49 82 -90 79 -93 -2 -2 2 -4 10 -4 8 -1 41
-25 74 -56 58 -53 219 -165 280 -194 17 -8 37 -20 45 -26 8 -7 17 -12 20 -12
3 1 21 -6 40 -14 65 -30 124 -47 178 -51 12 -1 22 -4 22 -7 0 -7 117 -4 157 4
18 3 47 15 65 26 18 11 42 24 53 29 31 14 70 62 87 106 26 66 5 157 -50 214
-15 16 -40 46 -57 67 -16 21 -35 42 -41 48 -6 6 -17 22 -24 36 -7 13 -17 29
-22 34 -18 21 -117 197 -118 211 -1 2 -12 31 -26 62 -34 75 -89 226 -105 283
-7 25 -14 50 -16 55 -1 6 -5 24 -9 40 -3 17 -8 37 -11 45 -6 16 -10 37 -16 80
-2 14 -5 30 -8 35 -11 24 6 239 21 258 1 1 3 9 5 17 13 66 112 388 125 405 3
6 17 39 30 75 29 82 116 266 130 275 6 3 8 10 5 15 -3 4 2 13 10 20 8 7 15 19
15 26 0 8 4 14 8 14 4 0 15 12 24 28 10 15 35 47 58 72 110 122 113 248 7 352
-28 26 -56 48 -64 48 -7 0 -13 5 -13 10 0 6 -11 10 -25 10 -14 0 -25 4 -25 9
0 9 -25 12 -116 13 -56 0 -106 -10 -159 -32 -40 -17 -60 -23 -67 -22 -5 1 -8
-2 -8 -8 0 -5 -5 -10 -10 -10 -6 0 -28 -11 -49 -24 -21 -14 -42 -22 -45 -19
-3 4 -6 2 -6 -4 0 -6 -15 -20 -32 -30 -57 -34 -186 -142 -271 -228 -113 -113
-172 -179 -169 -187 1 -5 -2 -8 -6 -8 -5 0 -24 -21 -43 -47 -18 -26 -40 -55
-49 -64 -8 -10 -23 -29 -33 -43 l-18 -26 -62 47 c-73 56 -81 64 -85 83 -2 8
-13 31 -26 50 -12 19 -29 50 -37 68 -7 17 -17 32 -22 32 -4 0 -12 10 -17 23
-10 23 -28 53 -45 74 -10 13 -15 19 -105 133 -82 103 -298 317 -370 367 -14 9
-27 19 -30 22 -8 9 -110 84 -165 122 -27 19 -53 39 -57 44 -4 6 -8 6 -8 2 0
-5 -7 -1 -16 7 -8 9 -22 16 -30 16 -8 0 -14 5 -14 10 0 6 -4 10 -9 10 -4 0
-35 16 -69 36 -33 20 -64 36 -69 37 -4 0 -25 11 -45 23 -21 13 -44 24 -53 24
-8 0 -15 3 -15 8 0 8 -74 42 -93 42 -7 0 -17 4 -23 9 -8 9 -198 78 -234 86 -8
2 -15 4 -15 5 0 2 -14 5 -53 14 -13 3 -31 7 -40 10 -9 3 -33 8 -52 11 -19 3
-46 7 -60 10 -14 2 -52 7 -84 10 -32 3 -62 8 -66 10 -4 2 -10 2 -13 -2z"/>
</g>
</svg>
